Coordinates
nRows=9
nColumns=38

# SIMM Motion File Header:
name Coordinates
datacolumns 38
datarows 9
otherdata 1
range 1.03400000000000000000 1.04200000000000000000

Units are S.I. units (second, meters, Newtons, ...)
Angles are in degrees.

endheader
time	pelvis_tilt	pelvis_list	pelvis_rotation	pelvis_tx	pelvis_ty	pelvis_tz	hip_flexion_r	hip_adduction_r	hip_rotation_r	knee_angle_r	ankle_angle_r	subtalar_angle_r	mtp_angle_r	hip_flexion_l	hip_adduction_l	hip_rotation_l	knee_angle_l	ankle_angle_l	subtalar_angle_l	mtp_angle_l	lumbar_extension	lumbar_bending	lumbar_rotation	arm_flex_r	arm_add_r	arm_rot_r	elbow_flex_r	pro_sup_r	wrist_flex_r	wrist_dev_r	arm_flex_l	arm_add_l	arm_rot_l	elbow_flex_l	pro_sup_l	wrist_flex_l	wrist_dev_l
      1.03400000000000000000	     -2.97444233757796270000	     -2.38207884334316720000	     -4.07327391419033360000	      1.13406473374040790000	      0.95299351720875891000	     -0.44147644651729773000	      2.21742453395520570000	     10.12907938380296000000	      4.37008919114411220000	    -37.29947577824246000000	     23.47441472813218900000	     -0.00000000000003477221	      0.00000000000001581248	     29.56594861169911700000	      0.61472033289901651000	     -2.83004877419065130000	   -110.47724520231557000000	     13.12887166110908400000	     -0.00000000000000434538	     -0.00000000000000007428	    -14.31425888988347200000	      7.02889384871141230000	     15.33016759180305900000	    -21.41393268518296000000	    -21.23044960892588100000	    -14.77155634000207100000	    131.20925822106020000000	     94.02130139136805600000	     -0.00000000000000051935	      0.00000000000000218645	    -38.91537649579228700000	    -23.59298808530673200000	     -0.98378387933636813000	    107.54121708610542000000	     95.24346568966852500000	      0.00000000000000181520	      0.00000000000000870235
      1.03499999999999990000	     -3.04002449095978380000	     -2.25215369328769110000	     -4.06886479357885640000	      1.13434000071277600000	      0.95323475763735099000	     -0.44146904870765274000	      1.74598276743112100000	      9.94692289368656550000	      4.45180618938474200000	    -36.89252796675614100000	     23.22915157300443700000	     -0.00000000000003538284	      0.00000000000001596535	     29.95827946322456700000	      0.76608420802815458000	     -2.80871089977492880000	   -110.17755701858182000000	     13.22811881880938100000	     -0.00000000000000439203	     -0.00000000000000001253	    -14.17730849178906800000	      6.86901571652288730000	     15.47588450362536600000	    -21.30683513920897500000	    -21.15910221885654300000	    -14.81859190348252200000	    131.51418931212285000000	     94.22342962718519700000	     -0.00000000000000053097	      0.00000000000000219041	    -39.30993621519735400000	    -23.74243560005077600000	     -1.08338845672162080000	    107.84888390741872000000	     95.22372427522117300000	      0.00000000000000183342	      0.00000000000000884365
      1.03600000000000000000	     -3.10597392814847730000	     -2.12071426739790250000	     -4.06451931221010640000	      1.13462163834270810000	      0.95348082479407104000	     -0.44146304084355137000	      1.27475469451746680000	      9.76155913080317280000	      4.53087671180686340000	    -36.48121130928159800000	     22.96938369190801400000	     -0.00000000000003600993	      0.00000000000001614538	     30.34634385155800400000	      0.91868794847824042000	     -2.79031700393744670000	   -109.86906844714903000000	     13.32587630825709200000	     -0.00000000000000443700	      0.00000000000000005271	    -14.03941715365815100000	      6.70731209104861480000	     15.61953708013640700000	    -21.20056736935898600000	    -21.09109570752677600000	    -14.86045472127661100000	    131.81966598871719000000	     94.42237415197050200000	     -0.00000000000000054179	      0.00000000000000219574	    -39.70909750971432600000	    -23.88774023619726700000	     -1.18904108723673030000	    108.15878229969208000000	     95.20584139838560100000	      0.00000000000000185201	      0.00000000000000898102
      1.03699999999999990000	     -3.17230658977684500000	     -1.98779268770895270000	     -4.06021245402878250000	      1.13490954244114860000	      0.95373147965686556000	     -0.44145845308575205000	      0.80390679675923349000	      9.57306258095892910000	      4.60723517047846260000	    -36.06576545244456600000	     22.69509632037748400000	     -0.00000000000003667538	      0.00000000000001629166	     30.73013257394083200000	      1.07247175900559140000	     -2.77481362914937520000	   -109.55187257341169000000	     13.42202585223931300000	     -0.00000000000000448143	      0.00000000000000015918	    -13.90057516355887500000	      6.54382345287290160000	     15.76105999521783300000	    -21.09500322625237000000	    -21.02653801789176700000	    -14.89694348710167100000	    132.12543828525784000000	     94.61784787746873300000	     -0.00000000000000055261	      0.00000000000000220179	    -40.11288259497759200000	    -24.02868526603676400000	     -1.30084284612837790000	    108.47066931355793000000	     95.18975179228873200000	      0.00000000000000186977	      0.00000000000000911184
      1.03800000000000000000	     -3.23906393964527340000	     -1.85342392008834270000	     -4.05592149829854430000	      1.13520359034886150000	      0.95398643424947471000	     -0.44145530829091550000	      0.33363881392871325000	      9.38151635568950400000	      4.68081735759552050000	    -35.64644354811182600000	     22.40628778828308000000	     -0.00000000000003734593	      0.00000000000001647540	     31.10967113460793600000	      1.22737326634585720000	     -2.76213958709806700000	   -109.22607022195407000000	     13.51644491435781200000	     -0.00000000000000452348	      0.00000000000000027255	    -13.76074481915047100000	      6.37859449186863440000	     15.90039391177884900000	    -20.99002862750743100000	    -20.96552791679539100000	    -14.92787367651248500000	    132.43126691991503000000	     94.80958480309466600000	     -0.00000000000000056208	      0.00000000000000220698	    -40.52131107174640300000	    -24.16506034762477000000	     -1.41888554530548890000	    108.78431111954490000000	     95.17538607996829100000	      0.00000000000000188606	      0.00000000000000924553
      1.03899999999999990000	     -3.30624113322135840000	     -1.71764319744609950000	     -4.05162475421793730000	      1.13550366214420630000	      0.95424547708018870000	     -0.44145362348411982000	     -0.13590604894994593000	      9.18700234867029230000	      4.75156342004677250000	    -35.22348727100445100000	     22.10296500110805700000	     -0.00000000000003800103	      0.00000000000001664507	     31.48493041551813900000	      1.38333533030347080000	     -2.75223039845797950000	   -108.89175481925966000000	     13.60901707342237400000	     -0.00000000000000456336	      0.00000000000000037758	    -13.61994215075807600000	      6.21166464091720720000	     16.03748588664744900000	    -20.88552822496292200000	    -20.90815998412370600000	    -14.95307855527794600000	    132.73692778223466000000	     94.99733527123346700000	     -0.00000000000000057107	      0.00000000000000221335	    -40.93438912633852300000	    -24.29666330432037200000	     -1.54325113177938000000	    109.09949038074376000000	     95.16266880005333900000	      0.00000000000000190348	      0.00000000000000938969
      1.04000000000000000000	     -3.37384193437610860000	     -1.58048813607787130000	     -4.04730329375220330000	      1.13580962389089430000	      0.95450837801246535000	     -0.44145340854107246000	     -0.60457247992727170000	      8.98960841420739240000	      4.81941489817732020000	    -34.79714516628931900000	     21.78514604458881700000	     -0.00000000000003869499	      0.00000000000001679902	     31.85589492754488100000	      1.54030008734002340000	     -2.74501501411889360000	   -108.54902376547192000000	     13.69962518811210500000	     -0.00000000000000460392	      0.00000000000000050896	    -13.47817467484304800000	      6.04307556511015060000	     16.17228993356666700000	    -20.78139568446612300000	    -20.85452109953132900000	    -14.97240903673695000000	    133.04220855766201000000	     95.18087046542417800000	     -0.00000000000000058070	      0.00000000000000222001	    -41.35211654249800300000	    -24.42329906863285100000	     -1.67401149670082680000	    109.41600027195651000000	     95.15152179318147300000	      0.00000000000000192028	      0.00000000000000954488
      1.04099999999999990000	     -3.44187538303338500000	     -1.44199888104766600000	     -4.04294153537711940000	      1.13612132829950530000	      0.95477489469590715000	     -0.44145466570963077000	     -1.07219716486412310000	      8.78942799940227280000	      4.88431521767124990000	    -34.36767143729022000000	     21.45286004678300500000	     -0.00000000000003942546	      0.00000000000001694269	     32.22255850698006400000	      1.69820885668303600000	     -2.74041640823562190000	   -108.19797736895171000000	     13.78815236325562300000	     -0.00000000000000464745	      0.00000000000000066061	    -13.33544532838500800000	      5.87287097016927720000	     16.30476803609401100000	    -20.67753321278030800000	    -20.80469081693758300000	    -14.98573402017716000000	    133.34690899062909000000	     95.35998265005875400000	     -0.00000000000000059050	      0.00000000000000222529	    -41.77448556546726600000	    -24.54477992298689800000	     -1.81122812454887220000	    109.73364466976548000000	     95.14186512497111900000	      0.00000000000000193579	      0.00000000000000971253
      1.04200000000000000000	     -3.51035370912925870000	     -1.30221820692038070000	     -4.03852726040623900000	      1.13643861525404240000	      0.95504477670388910000	     -0.44145738999953205000	     -1.53861145000050550000	      8.58655977798352770000	      4.94620936635038880000	    -33.93532481125705400000	     21.10614683979001400000	     -0.00000000000004013911	      0.00000000000001709557	     32.58492169579941600000	      1.85700234368834120000	     -2.73835157294296790000	   -107.83871821805127000000	     13.87448278141707000000	     -0.00000000000000468849	      0.00000000000000081625	    -13.19175488939212200000	      5.70109661697734000000	     16.43489036409142300000	    -20.57385119009699200000	    -20.75874167110746200000	    -14.99294053554245900000	    133.65084092243390000000	     95.53448515058379100000	     -0.00000000000000060047	      0.00000000000000223184	    -42.20148004814561900000	    -24.66092568432718600000	     -1.95495179404167140000	    110.05223809450725000000	     95.13361802932946900000	      0.00000000000000194990	      0.00000000000000986285
